# xmcd CD database file
#
# Track frame offsets:
#	150
#	25250
#	48200
#	73325
#
# Disc length: 1279 seconds
#
# Revision: 0
# Processed by: cddbd v1.5.1PL0 Copyright (c) Steve Scherf et al.
# Submitted via: CDex 1.51
#
DISCID=3104fd04
DTITLE=緒方恵美 - タイム・リープ
DYEAR=1997
DGENRE=JPop
TTITLE0=タイム・リープ
TTITLE1=SAKURA
TTITLE2=タイム・リープ(No Vocal Edition)
TTITLE3=SAKURA(No Vocal Edition)
EXTD=YEAR: 1997
EXTT0=
EXTT1=
EXTT2=
EXTT3=
PLAYORDER=
